<?xml version="1.0" encoding="utf-8"?>
<!-- Generator: Adobe Illustrator 24.1.2, SVG Export Plug-In . SVG Version: 6.00 Build 0)  -->
<svg version="1.1" id="Layer_1" xmlns="http://www.w3.org/2000/svg" xmlns:xlink="http://www.w3.org/1999/xlink" x="0px" y="0px"
	 viewBox="0 0 95.5 120.8" style="enable-background:new 0 0 95.5 120.8;" xml:space="preserve">
<style type="text/css">
	.st0{fill:#F57A7C;}
</style>
<path class="st0" d="M25.4,120.9l-8-3.2C0.4,105.9-4.1,92,3.7,74.6c3.8-8.4,10.6-13.9,18.7-18C9.5,42.7,9.1,27.4,21,14.7
	c1.8-1.9,3.7-3.8,5.6-5.7c10.8-6,22.2-9.9,34.6-8.9c6.7,0.6,13.3,2.2,19.7,4.6c7.7,2.8,11.8,9.5,14.6,17.1v14
	c-3.8,9-9.5,16.2-19.1,20.3c7.8,4.8,12.8,11,14,19.6c2.5,16.2-5.9,32.1-20.8,39c-5.4,2.6-11.4,4.1-17.1,6.1L25.4,120.9z M47.2,69.8
	c-9.6,0-16.1,6.4-16,15.8C31.3,92.4,35.1,96,42.3,96c9.8,0,17-6.7,16.8-15.8C59,73.8,54.5,69.8,47.2,69.8z M42.2,39.2
	c-0.1,6.5,2.6,9.6,8.5,9.7c7.2,0.2,12.9-5.7,13.2-13.4c0.2-6.1-3.4-10.4-8.8-10.5C47.9,24.9,42.4,31,42.2,39.2z"/>
</svg>
